<?xml version="1.0" encoding="UTF-8"?>
<!DOCTYPE svg PUBLIC "-//W3C//DTD SVG 1.1//EN" "http://www.w3.org/Graphics/SVG/1.1/DTD/svg11.dtd">
<svg xmlns="http://www.w3.org/2000/svg" version="1.1" width="2016px" height="2016px" style="shape-rendering:geometricPrecision; text-rendering:geometricPrecision; image-rendering:optimizeQuality; fill-rule:evenodd; clip-rule:evenodd" xmlns:xlink="http://www.w3.org/1999/xlink">
<g><path style="opacity:1" fill="#e2424c" d="M 1231.5,335.5 C 1194.17,335.5 1156.83,335.5 1119.5,335.5C 1119.5,372.833 1119.5,410.167 1119.5,447.5C 1082.17,447.5 1044.83,447.5 1007.5,447.5C 1007.5,410.167 1007.5,372.833 1007.5,335.5C 970.167,335.5 932.833,335.5 895.5,335.5C 895.5,298.167 895.5,260.833 895.5,223.5C 895.5,186.167 895.5,148.833 895.5,111.5C 970.167,111.5 1044.83,111.5 1119.5,111.5C 1119.5,148.833 1119.5,186.167 1119.5,223.5C 1156.83,223.5 1194.17,223.5 1231.5,223.5C 1231.5,260.833 1231.5,298.167 1231.5,335.5 Z"/></g>
<g><path style="opacity:1" fill="#e2424c" d="M 783.5,223.5 C 783.5,260.833 783.5,298.167 783.5,335.5C 746.167,335.5 708.833,335.5 671.5,335.5C 671.5,298.167 671.5,260.833 671.5,223.5C 708.833,223.5 746.167,223.5 783.5,223.5 Z"/></g>
<g><path style="opacity:1" fill="#a52630" d="M 783.5,223.5 C 820.833,223.5 858.167,223.5 895.5,223.5C 895.5,260.833 895.5,298.167 895.5,335.5C 858.167,335.5 820.833,335.5 783.5,335.5C 783.5,298.167 783.5,260.833 783.5,223.5 Z"/></g>
<g><path style="opacity:1" fill="#e2424c" d="M 671.5,335.5 C 671.5,410.167 671.5,484.833 671.5,559.5C 596.833,559.5 522.167,559.5 447.5,559.5C 447.5,522.167 447.5,484.833 447.5,447.5C 484.833,447.5 522.167,447.5 559.5,447.5C 559.5,410.167 559.5,372.833 559.5,335.5C 596.833,335.5 634.167,335.5 671.5,335.5 Z"/></g>
<g><path style="opacity:1" fill="#a52630" d="M 671.5,335.5 C 708.833,335.5 746.167,335.5 783.5,335.5C 783.5,410.167 783.5,484.833 783.5,559.5C 746.167,559.5 708.833,559.5 671.5,559.5C 671.5,484.833 671.5,410.167 671.5,335.5 Z"/></g>
<g><path style="opacity:1" fill="#e2424c" d="M 783.5,335.5 C 820.833,335.5 858.167,335.5 895.5,335.5C 932.833,335.5 970.167,335.5 1007.5,335.5C 1007.5,372.833 1007.5,410.167 1007.5,447.5C 1007.5,484.833 1007.5,522.167 1007.5,559.5C 970.167,559.5 932.833,559.5 895.5,559.5C 895.5,596.833 895.5,634.167 895.5,671.5C 820.833,671.5 746.167,671.5 671.5,671.5C 671.5,634.167 671.5,596.833 671.5,559.5C 708.833,559.5 746.167,559.5 783.5,559.5C 783.5,484.833 783.5,410.167 783.5,335.5 Z"/></g>
<g><path style="opacity:1" fill="#a52630" d="M 895.5,335.5 C 932.833,335.5 970.167,335.5 1007.5,335.5C 1007.5,372.833 1007.5,410.167 1007.5,447.5C 970.167,447.5 932.833,447.5 895.5,447.5C 895.5,410.167 895.5,372.833 895.5,335.5 Z"/></g>
<g><path style="opacity:1" fill="#a52630" d="M 1231.5,335.5 C 1231.5,447.5 1231.5,559.5 1231.5,671.5C 1194.17,671.5 1156.83,671.5 1119.5,671.5C 1119.5,634.167 1119.5,596.833 1119.5,559.5C 1082.17,559.5 1044.83,559.5 1007.5,559.5C 1007.5,522.167 1007.5,484.833 1007.5,447.5C 1044.83,447.5 1082.17,447.5 1119.5,447.5C 1119.5,410.167 1119.5,372.833 1119.5,335.5C 1156.83,335.5 1194.17,335.5 1231.5,335.5 Z"/></g>
<g><path style="opacity:1" fill="#e2424c" d="M 1231.5,335.5 C 1268.83,335.5 1306.17,335.5 1343.5,335.5C 1343.5,410.167 1343.5,484.833 1343.5,559.5C 1343.5,596.833 1343.5,634.167 1343.5,671.5C 1306.17,671.5 1268.83,671.5 1231.5,671.5C 1231.5,559.5 1231.5,447.5 1231.5,335.5 Z"/></g>
<g><path style="opacity:1" fill="#a52630" d="M 447.5,559.5 C 522.167,559.5 596.833,559.5 671.5,559.5C 671.5,596.833 671.5,634.167 671.5,671.5C 746.167,671.5 820.833,671.5 895.5,671.5C 895.5,708.833 895.5,746.167 895.5,783.5C 858.167,783.5 820.833,783.5 783.5,783.5C 708.833,783.5 634.167,783.5 559.5,783.5C 559.5,746.167 559.5,708.833 559.5,671.5C 522.167,671.5 484.833,671.5 447.5,671.5C 447.5,634.167 447.5,596.833 447.5,559.5 Z"/></g>
<g><path style="opacity:1" fill="#a52630" d="M 1007.5,559.5 C 1007.5,596.833 1007.5,634.167 1007.5,671.5C 970.167,671.5 932.833,671.5 895.5,671.5C 895.5,634.167 895.5,596.833 895.5,559.5C 932.833,559.5 970.167,559.5 1007.5,559.5 Z"/></g>
<g><path style="opacity:1" fill="#e2424c" d="M 1007.5,559.5 C 1044.83,559.5 1082.17,559.5 1119.5,559.5C 1119.5,596.833 1119.5,634.167 1119.5,671.5C 1082.17,671.5 1044.83,671.5 1007.5,671.5C 1007.5,634.167 1007.5,596.833 1007.5,559.5 Z"/></g>
<g><path style="opacity:1" fill="#a52630" d="M 1343.5,559.5 C 1380.83,559.5 1418.17,559.5 1455.5,559.5C 1455.5,596.833 1455.5,634.167 1455.5,671.5C 1418.17,671.5 1380.83,671.5 1343.5,671.5C 1343.5,634.167 1343.5,596.833 1343.5,559.5 Z"/></g>
<g><path style="opacity:1" fill="#e2424c" d="M 895.5,671.5 C 932.833,671.5 970.167,671.5 1007.5,671.5C 1007.5,708.833 1007.5,746.167 1007.5,783.5C 1044.83,783.5 1082.17,783.5 1119.5,783.5C 1119.5,820.833 1119.5,858.167 1119.5,895.5C 1044.83,895.5 970.167,895.5 895.5,895.5C 858.167,895.5 820.833,895.5 783.5,895.5C 783.5,858.167 783.5,820.833 783.5,783.5C 820.833,783.5 858.167,783.5 895.5,783.5C 895.5,746.167 895.5,708.833 895.5,671.5 Z"/></g>
<g><path style="opacity:1" fill="#a52630" d="M 1007.5,671.5 C 1044.83,671.5 1082.17,671.5 1119.5,671.5C 1119.5,708.833 1119.5,746.167 1119.5,783.5C 1082.17,783.5 1044.83,783.5 1007.5,783.5C 1007.5,746.167 1007.5,708.833 1007.5,671.5 Z"/></g>
<g><path style="opacity:1" fill="#e2424c" d="M 1119.5,671.5 C 1156.83,671.5 1194.17,671.5 1231.5,671.5C 1231.5,708.833 1231.5,746.167 1231.5,783.5C 1194.17,783.5 1156.83,783.5 1119.5,783.5C 1119.5,746.167 1119.5,708.833 1119.5,671.5 Z"/></g>
<g><path style="opacity:1" fill="#a52630" d="M 1231.5,671.5 C 1268.83,671.5 1306.17,671.5 1343.5,671.5C 1343.5,708.833 1343.5,746.167 1343.5,783.5C 1306.17,783.5 1268.83,783.5 1231.5,783.5C 1231.5,746.167 1231.5,708.833 1231.5,671.5 Z"/></g>
<g><path style="opacity:1" fill="#098208" d="M 895.5,895.5 C 970.167,895.5 1044.83,895.5 1119.5,895.5C 1156.83,895.5 1194.17,895.5 1231.5,895.5C 1231.5,932.833 1231.5,970.167 1231.5,1007.5C 1194.17,1007.5 1156.83,1007.5 1119.5,1007.5C 1119.5,1082.17 1119.5,1156.83 1119.5,1231.5C 1156.83,1231.5 1194.17,1231.5 1231.5,1231.5C 1231.5,1194.17 1231.5,1156.83 1231.5,1119.5C 1343.5,1119.5 1455.5,1119.5 1567.5,1119.5C 1567.5,1156.83 1567.5,1194.17 1567.5,1231.5C 1530.17,1231.5 1492.83,1231.5 1455.5,1231.5C 1455.5,1268.83 1455.5,1306.17 1455.5,1343.5C 1306.17,1343.5 1156.83,1343.5 1007.5,1343.5C 1007.5,1418.17 1007.5,1492.83 1007.5,1567.5C 970.167,1567.5 932.833,1567.5 895.5,1567.5C 895.5,1604.83 895.5,1642.17 895.5,1679.5C 932.833,1679.5 970.167,1679.5 1007.5,1679.5C 1007.5,1754.17 1007.5,1828.83 1007.5,1903.5C 970.167,1903.5 932.833,1903.5 895.5,1903.5C 895.5,1866.17 895.5,1828.83 895.5,1791.5C 858.167,1791.5 820.833,1791.5 783.5,1791.5C 783.5,1716.83 783.5,1642.17 783.5,1567.5C 746.167,1567.5 708.833,1567.5 671.5,1567.5C 671.5,1530.17 671.5,1492.83 671.5,1455.5C 746.167,1455.5 820.833,1455.5 895.5,1455.5C 895.5,1380.83 895.5,1306.17 895.5,1231.5C 932.833,1231.5 970.167,1231.5 1007.5,1231.5C 1007.5,1156.83 1007.5,1082.17 1007.5,1007.5C 970.167,1007.5 932.833,1007.5 895.5,1007.5C 895.5,970.167 895.5,932.833 895.5,895.5 Z"/></g>
</svg>
