<?xml version="1.0" encoding="UTF-8"?>
<!DOCTYPE svg PUBLIC "-//W3C//DTD SVG 1.1//EN" "http://www.w3.org/Graphics/SVG/1.1/DTD/svg11.dtd">
<svg xmlns="http://www.w3.org/2000/svg" version="1.1" width="2016px" height="2016px" style="shape-rendering:geometricPrecision; text-rendering:geometricPrecision; image-rendering:optimizeQuality; fill-rule:evenodd; clip-rule:evenodd" xmlns:xlink="http://www.w3.org/1999/xlink">
<g><path style="opacity:1" fill="#2f3599" d="M 1007.5,559.5 C 970.167,559.5 932.833,559.5 895.5,559.5C 895.5,522.167 895.5,484.833 895.5,447.5C 858.167,447.5 820.833,447.5 783.5,447.5C 783.5,484.833 783.5,522.167 783.5,559.5C 746.167,559.5 708.833,559.5 671.5,559.5C 671.5,596.833 671.5,634.167 671.5,671.5C 634.167,671.5 596.833,671.5 559.5,671.5C 559.5,559.5 559.5,447.5 559.5,335.5C 596.833,335.5 634.167,335.5 671.5,335.5C 671.5,298.167 671.5,260.833 671.5,223.5C 746.167,223.5 820.833,223.5 895.5,223.5C 895.5,260.833 895.5,298.167 895.5,335.5C 932.833,335.5 970.167,335.5 1007.5,335.5C 1007.5,410.167 1007.5,484.833 1007.5,559.5 Z"/></g>
<g><path style="opacity:1" fill="#8c9cfa" d="M 895.5,559.5 C 858.167,559.5 820.833,559.5 783.5,559.5C 783.5,522.167 783.5,484.833 783.5,447.5C 820.833,447.5 858.167,447.5 895.5,447.5C 895.5,484.833 895.5,522.167 895.5,559.5 Z"/></g>
<g><path style="opacity:1" fill="#8c9cfa" d="M 783.5,559.5 C 783.5,596.833 783.5,634.167 783.5,671.5C 746.167,671.5 708.833,671.5 671.5,671.5C 671.5,634.167 671.5,596.833 671.5,559.5C 708.833,559.5 746.167,559.5 783.5,559.5 Z"/></g>
<g><path style="opacity:1" fill="#fec20d" d="M 783.5,559.5 C 820.833,559.5 858.167,559.5 895.5,559.5C 895.5,596.833 895.5,634.167 895.5,671.5C 858.167,671.5 820.833,671.5 783.5,671.5C 783.5,634.167 783.5,596.833 783.5,559.5 Z"/></g>
<g><path style="opacity:1" fill="#8c9cfa" d="M 895.5,559.5 C 932.833,559.5 970.167,559.5 1007.5,559.5C 1044.83,559.5 1082.17,559.5 1119.5,559.5C 1119.5,596.833 1119.5,634.167 1119.5,671.5C 1082.17,671.5 1044.83,671.5 1007.5,671.5C 1007.5,746.167 1007.5,820.833 1007.5,895.5C 970.167,895.5 932.833,895.5 895.5,895.5C 895.5,858.167 895.5,820.833 895.5,783.5C 858.167,783.5 820.833,783.5 783.5,783.5C 783.5,746.167 783.5,708.833 783.5,671.5C 820.833,671.5 858.167,671.5 895.5,671.5C 895.5,634.167 895.5,596.833 895.5,559.5 Z"/></g>
<g><path style="opacity:1" fill="#2f3599" d="M 1119.5,559.5 C 1156.83,559.5 1194.17,559.5 1231.5,559.5C 1231.5,596.833 1231.5,634.167 1231.5,671.5C 1268.83,671.5 1306.17,671.5 1343.5,671.5C 1343.5,746.167 1343.5,820.833 1343.5,895.5C 1306.17,895.5 1268.83,895.5 1231.5,895.5C 1231.5,932.833 1231.5,970.167 1231.5,1007.5C 1156.83,1007.5 1082.17,1007.5 1007.5,1007.5C 970.167,1007.5 932.833,1007.5 895.5,1007.5C 895.5,970.167 895.5,932.833 895.5,895.5C 932.833,895.5 970.167,895.5 1007.5,895.5C 1007.5,820.833 1007.5,746.167 1007.5,671.5C 1044.83,671.5 1082.17,671.5 1119.5,671.5C 1119.5,634.167 1119.5,596.833 1119.5,559.5 Z"/></g>
<g><path style="opacity:1" fill="#2f3599" d="M 559.5,671.5 C 559.5,708.833 559.5,746.167 559.5,783.5C 596.833,783.5 634.167,783.5 671.5,783.5C 671.5,820.833 671.5,858.167 671.5,895.5C 708.833,895.5 746.167,895.5 783.5,895.5C 783.5,932.833 783.5,970.167 783.5,1007.5C 820.833,1007.5 858.167,1007.5 895.5,1007.5C 895.5,1044.83 895.5,1082.17 895.5,1119.5C 858.167,1119.5 820.833,1119.5 783.5,1119.5C 671.5,1119.5 559.5,1119.5 447.5,1119.5C 447.5,1082.17 447.5,1044.83 447.5,1007.5C 410.167,1007.5 372.833,1007.5 335.5,1007.5C 335.5,970.167 335.5,932.833 335.5,895.5C 372.833,895.5 410.167,895.5 447.5,895.5C 447.5,820.833 447.5,746.167 447.5,671.5C 484.833,671.5 522.167,671.5 559.5,671.5 Z"/></g>
<g><path style="opacity:1" fill="#8c9cfa" d="M 559.5,671.5 C 596.833,671.5 634.167,671.5 671.5,671.5C 671.5,708.833 671.5,746.167 671.5,783.5C 634.167,783.5 596.833,783.5 559.5,783.5C 559.5,746.167 559.5,708.833 559.5,671.5 Z"/></g>
<g><path style="opacity:1" fill="#fec20d" d="M 671.5,671.5 C 708.833,671.5 746.167,671.5 783.5,671.5C 783.5,708.833 783.5,746.167 783.5,783.5C 746.167,783.5 708.833,783.5 671.5,783.5C 671.5,746.167 671.5,708.833 671.5,671.5 Z"/></g>
<g><path style="opacity:1" fill="#8c9cfa" d="M 671.5,783.5 C 708.833,783.5 746.167,783.5 783.5,783.5C 783.5,820.833 783.5,858.167 783.5,895.5C 746.167,895.5 708.833,895.5 671.5,895.5C 671.5,858.167 671.5,820.833 671.5,783.5 Z"/></g>
<g><path style="opacity:1" fill="#fec20d" d="M 783.5,783.5 C 820.833,783.5 858.167,783.5 895.5,783.5C 895.5,820.833 895.5,858.167 895.5,895.5C 858.167,895.5 820.833,895.5 783.5,895.5C 783.5,858.167 783.5,820.833 783.5,783.5 Z"/></g>
<g><path style="opacity:1" fill="#098208" d="M 783.5,1119.5 C 820.833,1119.5 858.167,1119.5 895.5,1119.5C 895.5,1268.83 895.5,1418.17 895.5,1567.5C 932.833,1567.5 970.167,1567.5 1007.5,1567.5C 1007.5,1604.83 1007.5,1642.17 1007.5,1679.5C 1044.83,1679.5 1082.17,1679.5 1119.5,1679.5C 1119.5,1567.5 1119.5,1455.5 1119.5,1343.5C 1156.83,1343.5 1194.17,1343.5 1231.5,1343.5C 1231.5,1268.83 1231.5,1194.17 1231.5,1119.5C 1268.83,1119.5 1306.17,1119.5 1343.5,1119.5C 1343.5,1082.17 1343.5,1044.83 1343.5,1007.5C 1380.83,1007.5 1418.17,1007.5 1455.5,1007.5C 1455.5,932.833 1455.5,858.167 1455.5,783.5C 1492.83,783.5 1530.17,783.5 1567.5,783.5C 1567.5,932.833 1567.5,1082.17 1567.5,1231.5C 1530.17,1231.5 1492.83,1231.5 1455.5,1231.5C 1455.5,1268.83 1455.5,1306.17 1455.5,1343.5C 1418.17,1343.5 1380.83,1343.5 1343.5,1343.5C 1343.5,1455.5 1343.5,1567.5 1343.5,1679.5C 1306.17,1679.5 1268.83,1679.5 1231.5,1679.5C 1231.5,1716.83 1231.5,1754.17 1231.5,1791.5C 1194.17,1791.5 1156.83,1791.5 1119.5,1791.5C 1119.5,1828.83 1119.5,1866.17 1119.5,1903.5C 1082.17,1903.5 1044.83,1903.5 1007.5,1903.5C 1007.5,1866.17 1007.5,1828.83 1007.5,1791.5C 970.167,1791.5 932.833,1791.5 895.5,1791.5C 895.5,1754.17 895.5,1716.83 895.5,1679.5C 858.167,1679.5 820.833,1679.5 783.5,1679.5C 783.5,1492.83 783.5,1306.17 783.5,1119.5 Z"/></g>
<g><path style="opacity:1" fill="#8c9cfa" d="M 783.5,895.5 C 820.833,895.5 858.167,895.5 895.5,895.5C 895.5,932.833 895.5,970.167 895.5,1007.5C 858.167,1007.5 820.833,1007.5 783.5,1007.5C 783.5,970.167 783.5,932.833 783.5,895.5 Z"/></g>
<g><path style="opacity:1" fill="#098208" d="M 895.5,1007.5 C 932.833,1007.5 970.167,1007.5 1007.5,1007.5C 1007.5,1044.83 1007.5,1082.17 1007.5,1119.5C 970.167,1119.5 932.833,1119.5 895.5,1119.5C 895.5,1082.17 895.5,1044.83 895.5,1007.5 Z"/></g>
</svg>
